# xmcd CD database file
#
# Track frame offsets:
#	150
#	4027
#	19606
#	48411
#	67488
#	95072
#	114529
#	139101
#	161933
#	190295
#	208057
#	224379
#	249819
#	271511
#
# Disc length: 4099 seconds
#
# Revision: 9
# Processed by: cddbd v1.5.2PL0 Copyright (c) Steve Scherf et al.
# Submitted via: CDex 1.70beta2
#
DISCID=cc10010e
DTITLE=The Rolling Stones - No Security
DYEAR=1998
DGENRE=Rock
TTITLE0=Intro - The Rolling Stones
TTITLE1=You Got Me Rocking - The Rolling Stones
TTITLE2=Gimme Shelter - The Rolling Stones
TTITLE3=Flip The Switch - The Rolling Stones
TTITLE4=Memory Motel - The Rolling Stones
TTITLE5=Corinna - The Rolling Stones
TTITLE6=Saint Of Me - The Rolling Stones
TTITLE7=Waiting On A Friend - The Rolling Stones
TTITLE8=Sister Morphine - The Rolling Stones
TTITLE9=Live With Me - The Rolling Stones
TTITLE10=Respectable - The Rolling Stones
TTITLE11=Thief In The Night - The Rolling Stones
TTITLE12=The Last Time - The Rolling Stones
TTITLE13=Out Of Control - The Rolling Stones
EXTD=YEAR: 1998
EXTT0=
EXTT1=
EXTT2=
EXTT3=
EXTT4=
EXTT5=
EXTT6=
EXTT7=
EXTT8=
EXTT9=
EXTT10=
EXTT11=
EXTT12=
EXTT13=
PLAYORDER=
